<?xml version="1.0" encoding="utf-8"?>
<!-- Generator: Adobe Illustrator 19.2.1, SVG Export Plug-In . SVG Version: 6.00 Build 0)  -->
<svg version="1.1" xmlns="http://www.w3.org/2000/svg" xmlns:xlink="http://www.w3.org/1999/xlink" x="0px" y="0px"
	 viewBox="0 0 1280 720" style="enable-background:new 0 0 1280 720;" xml:space="preserve">
<style type="text/css">
	.st0{fill:#F3F0DC;}
	.st1{opacity:0.5;fill:#FFFFFF;}
	.st2{fill:#A0A58F;}
	.st3{fill:#8F8A7B;}
	.st4{fill:#568344;}
	.st5{fill:#18341C;}
	.st6{fill:#162F1B;}
</style>
<g id="Layer_2">
	<rect class="st0" width="1280" height="720"/>
</g>
<g id="Layer_9">
	<path class="st1" d="M558,349h-31l-9.9,0.6l-24.1,3.9c0,0-15-2.5-27-4.5s-25,2-30,0s-3-3.2-12-0.6c-9,2.6-17,7.6-22,5.1
		s-18-2.9-18-2.9s10-1.7-7-3.6c-17-1.9-34.8-2.9-36.9-3.9s-14.1-6.8-22.1-5.4s-10,2.2-24-0.2c-14-2.4-21.6-6.8-33.8-6.1
		c-12.2,0.7-13.2-0.9-23.2-0.1s-10,0.8-10,0.8l9,5.6h8c0,0-4,1.6-9,5c-5,3.4,5-1.6-5,3.4s-18,8.2-18,8.2h-33h-38l41,5.8c0,0,0-4,5,0
		s-2,8,18,5s27-10,31-5s11,6.1,22,6s7.3-0.9,28.2,0c20.8,1,51.4-0.4,59.9,1.5c8.5,2,14.9-3.4,29.9,0c15,3.4,29,6.4,29,6.4
		c-6,9-12,12-12,12s4,3,15,0s20-7,28-7s11-1,17-2s0-4,15-1s24,5,33,2S558,349,558,349z"/>
	<path class="st1" d="M936,337.6c0,0,3,3.6,20,0s18-7.6,30-6.6s16-1,21,0s9,3.9,18,4s20,9.2,34,2.6s22-16.6,31-18.6s9,2,30,0
		s30-2.2,48-0.6c18,1.6,24-0.7,38-1.1c14-0.4,19-8.4,14-0.4s8,9-8,14s-28,8.2-32,6.6s-4-1.6-4-1.6l-7,1.6c0,0-6-1.6-6,2.4
		c0,4-1,5-5,8s10-3-4,3s-14,7.3-24,8.2s-15-9.2-26,0.8s-22.1,13-25.1,13s19.1-1,24.1,0s5,1,5,1l-29.1,5c0,0-1.9-6-11.9,0
		s-22,13.7-22,8.3c0-5.3,3-15.3-8-16.3s-29.7-13-36.4-11c-6.6,2-2.6-2-16.6,0s-27-2-32,0s-16,0-16,0l-9-0.8l26-12.2l-37-5L936,337.6
		z"/>
</g>
<g id="Layer_6">
	<path class="st2" d="M536.6,445.6c9,0,15,0,15,0l22.5-18c10.5-1.5,12-7.5,18,0s6,0,7.5,13.5c1.7,15-9.7,17,3.2,22.6
		c4.2,1.8,7.8,4.8,10.2,8.7c4.7,7.8-4.5-1.4,4.6,7.7c9,9,4.5,6,13.5,9.7c9,3.8,4.8-5.7,21.9-8.5s20.1-8.7,41.1-2.7
		c21,6,19.5,27,30,11.2s10.5-18.7,15-27.7c4.5-9,7.5-22.5,12-22.5s6-12,12-12s19.5,3,28.5-9c9-12,4.5-30,9-39
		c4.5-9,7.5-19.6,7.5-19.6s0,1.4,10.5,0c10.5-1.4,15,18.1,16.5,27.1c1.5,9-6,24,0,28.5c6,4.5,16.3,4.4,16.3,4.4s8.2-1.4,18.2,13.6
		s3,79.5,22.5,22.5c19.5-57,16.5-58,21-62c4.5-4,0-4,10.5-8.5c10.5-4.5,18-16.5,25.5-19.5s10.6-10.1,10.6-10.1s8.9-24.4,22.4-18.4
		s19.3,27.1,19.3,27.1s-5.8,2.9,6.2,19.4s10.5,19.5,16.5,22.5c6,3-1.8,3.8,3.3,11.4c5.1,7.6,8.7-0.9,16.2,9.6s12,6,12,22.5
		c0,16.5,16.5,27,16.5,27s13.5,3,18-7.5c4.5-10.5,15-34.5,15-34.5s7.5-4.5,15-7.5s21,0,21,0s7.5,0,13.5-7.5c6-7.5-0.9-12.8,5.1-22.8
		c6-10,8.4-26.7,8.4-26.7s28.4,21.4,27.2,23.5c-1.2,2.1,8.8,9.5,10.3,14c1.5,4.5,1.5-2.5,13.5-14s13.5-29.7,25.5-34.1
		s13.5-20.9,19.5-22.4c6-1.5,15.9,30.7,15.9,30.7V720H0l0-352l32-32h16l65.6,70.6l55.5-12h34.5l12-22.5h25.5l7.5-12.1l6-22.4
		l12-13.5c0,0,9-12,13.5-13.5c4.5-1.5,13.5-10.5,13.5-10.5v-7.5h16.5l12,7.5c0,0,0,22.5,0,27c0,4.5-10.5,4.5,0,10.5
		s10.5,16.5,10.5,18.7s9,11.2,13.5,11.2c4.5,0,6,0,15,6c9,6,9,6,16.5,12c7.5,6,9,9,9,15c0,6,4.5,9,9,12c4.5,3,2.9-2.6,4.4,3.4
		s7.7-2.7,10.6,11.6c2.9,14.3-3.2,1.6,2.9,14.3c6.1,12.7,18.5,13,18.5,13s1.1,1.2,11.6-6.3c10.5-7.5,15-13.5,19.5-15
		c4.5-1.5,9-21,9-21s13.5-10.5,22.5-1.5s12,4.5,15,16.5"/>
</g>
<g id="Layer_5">
	<path class="st3" d="M0,384h32l23.1-22.4h64.5l76.5,36h30l18,31.5c0,0,19.5-4.5,19.5,10.5c0,15,0,21,0,21l87,4.5l51-31.5l45,31.5
		l73.5,26.2l9,24.8h63l47.9-37.5l60.1,12.7l46.5,4.6l61.5,6.7l54-46.5l52.5-22.5l42-37.5c0,0,61.5,12,69,22.5s30,48,30,48l67.5-12
		l40.1-5.1l37.9-65.3l15,21h28.5L1280,384v336H0V384z"/>
</g>
<g id="Layer_4">
	<path class="st4" d="M0,416l55.1-24.4h33c0,0,22.5,10.5,25.5,15c3,4.5,16.5,10.5,16.5,10.5s24-4.5,31.5,0c7.5,4.5,30,21,30,21h28.5
		c0,0,18-9,24,0s12-1.5,19.5,10.5c7.5,12,31.5,19.5,36,18c4.5-1.5,27,0.4,33,0.2c6-0.2,4.5-7.7,18,7.3s16.5,19.5,22.5,19.5
		s10.5-6,19.5,0s21,1.5,25.5,0c4.5-1.5,19.5-10.5,19.5-10.5s7.5-16.5,25.5,7.5c18,24,31.5,28.5,42,28.5s27-7.5,42-7.5s28.5,0,33,0
		s12,1.5,12,1.5s4.5,10.5,9,6c4.5-4.5,10.5-5.3,24,1.1c13.5,6.4,22.5,9.4,22.5,9.4s9-1.5,19.5,0c10.5,1.5,22.5,3,30,0
		s27,1.5,34.5-10.5c7.5-12,1.5-10.4,15-14.2s18-2.2,33,0c15,2.2,43.5-14.3,49.5-17.3s18-4.5,25.5-3c7.5,1.5,36-12,43.5-13.5
		c7.5-1.5,36-34.5,54-36c18-1.5,46.5,4.6,52.5,10.6c6,5.9,25.5,28.4,25.5,28.4s51-19.5,55.5-21c4.5-1.5,27-3,36,1.5c9,4.5,33,9,33,9
		l30-17.9c0,0,4.5,7.6,16.5,0c12-7.6,78.9-29.7,78.9-29.7v304H0V612.4L0,416z"/>
</g>
<g id="Layer_3">
	<path class="st5" d="M0,448l44.6-20.4l25.5,19.5l39,7.5c0,0,46.5,6,51,7.5c4.5,1.5,31.5,25.5,31.5,25.5l19.5,17.3h57
		c0,0,43.5-6.7,54,0c10.5,6.7,39,18.7,39,18.7s9-3,13.5,0c4.5,3,34.5,4.5,39,0c4.5-4.5,40.5,9,48,9s34.5-4.5,42,0
		c7.5,4.5,18,3,40.5,0c22.5-3,49.5-1.5,67.5,9c18,10.5,31.5,9,40.5,9s19.5,4.6,31.5,0.1s12,4.1,31.5,2c19.5-2.1,27-15.6,43.5-18.6
		c16.5-3,34.5-10.5,52.5-9c18,1.5,27,13.5,52.5,6s36-22.4,43.5-26.2s12,0.8,31.5,0s21-11.2,42,0s36,17.2,51,11.2
		c15-6,16.5-36.6,48-25.8s43.5,21.3,67.5,7.8s30-24,54-30s16.5-13.5,40.5-18c24-4.5,38.4-2.1,38.4-2.1v272H0V448z"/>
</g>
<g id="Layer_1">
	<path class="st6" d="M1280,528v192H0V528l46.9,4.9l63,9.9l17.3-13l50.6,19.1l43.2,18.5h30.9c0,0,6.2,2.5,11.1,0
		c4.9-2.5,30.9,17.3,30.9,17.3l13.6,4.9l38.3-9.9c0,0,6.2-2.5,11.1-2.5c4.9,0,35.8,14.8,42,19.8s13.6,14.8,18.5,14.8
		s28.4-1.2,35.8,0c7.4,1.2,27.2-1.2,37,0c9.9,1.2,39.5,8.6,44.4,8.6s11.1-7.4,14.8-9.9c3.7-2.5,16-4.9,24.7-2.5
		c8.6,2.5,25.9,7.4,35.8,12.4c9.9,4.9,18.3,1.2,30.2,0c11.8-1.2,9.4-7.4,22.9-7.4s30.9,3.7,39.5,3.7c8.7,0,17.3-6.2,27.2-7.4
		c9.9-1.2,17.3-9.9,37-3.7c19.8,6.2,33.3,8.6,49.4,8.6c16,0,21-7.4,40.8-11.1c19.8-3.7,51.8-33.3,60.5-33.3c8.6,0,1.2-9.9,17.3-9.9
		c16.1,0,18.5-19.8,39.5,1.2s34.6,28.4,49.4,33.3c14.8,4.9,45.7,6.2,60.5,6.2c14.8,0,28.4,8.6,39.5,0c11.1-8.6,4.9-11.1,24.7-24.7
		c19.8-13.6,21-23.5,45.7-34.6l28.3-6l25.5-7.5L1280,528z"/>
</g>
</svg>
