<?xml version="1.0" encoding="utf-8"?>
<!-- Generator: Adobe Illustrator 19.2.1, SVG Export Plug-In . SVG Version: 6.00 Build 0)  -->
<svg version="1.1" xmlns="http://www.w3.org/2000/svg" xmlns:xlink="http://www.w3.org/1999/xlink" x="0px" y="0px"
	 viewBox="0 0 1392 768" style="enable-background:new 0 0 1392 768;" xml:space="preserve">
<style type="text/css">
	.st0{fill:#E8E4A3;}
	.st1{fill:#67473A;}
	.st2{fill:#4C342C;}
	.st3{fill:#9BC200;}
	.st4{fill:#8BA300;}
	.st5{fill:#007AA0;}
	.st6{fill:#3A9EB5;}
	.st7{fill:#C91717;}
	.st8{fill:#ED5151;}
	.st9{fill:#EDBA18;}
	.st10{fill:#FFF250;}
	.st11{fill:#82CEB1;}
	.st12{fill:#58BA92;}
	.st13{fill:#E9F5FA;}
	.st14{font-family:'OpenDyslexic-Regular';}
	.st15{font-size:78px;}
	.st16{font-family:'Aquino-Demo';}
	.st17{font-size:48px;}
	.st18{fill:none;}
</style>
<g id="bg">
	<rect x="0" y="0" class="st0" width="1392" height="768"/>
</g>
<g id="ground">
	<path class="st1" d="M144,144v128H16V160c0-2.9,0.8-5.7,2.1-8c0.9-1.5,2-2.9,3.3-4c2.8-2.5,6.5-4,10.6-4H144z"/>
	<rect x="152" y="144" class="st1" width="128" height="128"/>
	<path class="st1" d="M416,160v112H288V144h112c4.1,0,7.8,1.5,10.6,4c1.3,1.1,2.4,2.5,3.3,4C415.2,154.3,416,157.1,416,160z"/>
	<rect x="288" y="280" class="st1" width="128" height="128"/>
	<path class="st1" d="M280,296v96c0,4.4-1.8,8.4-4.7,11.3c-2.9,2.9-6.9,4.7-11.3,4.7h-96c-4.4,0-8.4-1.8-11.3-4.7
		c-2.9-2.9-4.7-6.9-4.7-11.3v-96c0-8.8,7.2-16,16-16h96C272.8,280,280,287.2,280,296z"/>
	<path class="st1" d="M144,296v96c0,4.4-1.8,8.4-4.7,11.3c-2.9,2.9-6.9,4.7-11.3,4.7H32c-4.4,0-8.4-1.8-11.3-4.7
		c-2.9-2.9-4.7-6.9-4.7-11.3v-96c0-2.9,0.8-5.7,2.1-8c0.9-1.5,2-2.9,3.3-4c2.8-2.5,6.5-4,10.6-4h96c4.1,0,7.8,1.5,10.6,4
		c1.3,1.1,2.4,2.5,3.3,4C143.2,290.3,144,293.1,144,296z"/>
	<path class="st1" d="M552,280v128h-36c0-3-0.1-6-0.4-8.9c-1.3-13.9-5.7-26.8-12.5-38.2c-2-3.3-4.1-6.5-6.5-9.5
		c-2.3-3-4.8-5.8-7.5-8.5c-3.9-3.9-8.1-7.5-12.7-10.6c-1.6-1.1-3.3-2.2-4.9-3.2c-2-1.2-4.1-2.4-6.3-3.5c-1.1-0.5-2.1-1.1-3.2-1.5
		c-1.1-0.5-2.2-1-3.3-1.4c-2.1-0.9-4.2-1.6-6.4-2.3c-1.6-0.5-3.1-1-4.7-1.4c-1.5-0.4-3-0.8-4.5-1.1c-2.5-0.5-5.1-1-7.7-1.3
		c-2.4-0.3-4.9-0.5-7.4-0.6c-1.3-0.1-2.6-0.1-3.9-0.1v-36H552z"/>
	<path class="st1" d="M688,280v36c-1.3,0-2.6,0-3.9,0.1c-2.5,0.1-5,0.3-7.4,0.6c-2.6,0.3-5.2,0.7-7.7,1.3c-1.5,0.3-3,0.7-4.5,1.1
		c-1.6,0.4-3.1,0.9-4.7,1.4c-2.2,0.7-4.3,1.5-6.4,2.3c-1.1,0.4-2.2,0.9-3.3,1.4c-1.1,0.5-2.2,1-3.2,1.5c-2.1,1.1-4.2,2.2-6.3,3.5
		c-1.7,1-3.3,2.1-4.9,3.2c-4.5,3.1-8.8,6.7-12.7,10.6c-2.7,2.7-5.2,5.5-7.5,8.5c-2.4,3-4.5,6.2-6.5,9.5
		c-6.8,11.4-11.2,24.3-12.5,38.2c-0.3,2.9-0.4,5.9-0.4,8.9h-36V280H688z"/>
	<path class="st1" d="M552,144v128h-16c-2.6,0-5.3-0.1-7.9-0.3c-2.6-0.2-5.1-0.4-7.6-0.8c-0.4,0-0.8-0.1-1.1-0.2
		c-3-0.4-5.9-1-8.8-1.7c-5.1-1.2-10.2-2.7-15-4.6c-10.1-3.9-19.5-9.2-27.9-15.7c-1.9-1.5-3.8-3-5.7-4.7c-1.9-1.6-3.7-3.3-5.4-5.1
		c-0.8-0.8-1.5-1.5-2.2-2.3l0,0c-7-7.5-13-15.9-17.8-25.1c-1.9-3.6-3.5-7.3-5-11c-1.5-3.9-2.8-8-3.9-12.1c-0.6-2.1-1.1-4.3-1.5-6.5
		c-0.5-2.3-0.8-4.5-1.1-6.9c-0.7-4.9-1-9.9-1-15v-16H552z"/>
	<path class="st1" d="M688,144v16c0,5.1-0.3,10.1-1,15c-0.3,2.3-0.7,4.6-1.1,6.9c-0.4,2.2-0.9,4.4-1.5,6.5
		c-1.1,4.1-2.4,8.2-3.9,12.1c-1.5,3.8-3.1,7.5-5,11c-4.8,9.2-10.8,17.7-17.8,25.1l0,0c-0.7,0.8-1.5,1.5-2.2,2.3
		c-1.8,1.8-3.6,3.5-5.4,5.1c-1.8,1.6-3.7,3.2-5.7,4.7c-8.4,6.5-17.8,11.8-27.9,15.7c-4.9,1.9-9.9,3.4-15,4.6h0
		c-2.9,0.7-5.9,1.2-8.8,1.7h0c-0.4,0.1-0.8,0.1-1.1,0.2c-2.5,0.4-5,0.6-7.6,0.8c-2.6,0.2-5.2,0.3-7.9,0.3h-16V144H688z"/>
	<rect x="696" y="144" class="st1" width="128" height="64"/>
	<path class="st1" d="M960,160v32c0,4.4-1.8,8.4-4.7,11.3c-2.9,2.9-6.9,4.7-11.3,4.7H832v-64h112c4.1,0,7.8,1.5,10.6,4
		c1.3,1.1,2.4,2.5,3.3,4C959.2,154.3,960,157.1,960,160z"/>
	<path class="st1" d="M824,280v64H712c-4.4,0-8.4-1.8-11.3-4.7c-2.9-2.9-4.7-6.9-4.7-11.3v-32c0-2.9,0.8-5.7,2.1-8
		c0.9-1.5,2-2.9,3.3-4c2.8-2.5,6.5-4,10.6-4H824z"/>
	<path class="st1" d="M960,296v32c0,4.4-1.8,8.4-4.7,11.3c-2.9,2.9-6.9,4.7-11.3,4.7h-96c-4.4,0-8.4-1.8-11.3-4.7
		c-2.9-2.9-4.7-6.9-4.7-11.3v-32c0-2.9,0.8-5.7,2.1-8c0.9-1.5,2-2.9,3.3-4c2.8-2.5,6.5-4,10.6-4h96c4.1,0,7.8,1.5,10.6,4
		c1.3,1.1,2.4,2.5,3.3,4C959.2,290.3,960,293.1,960,296z"/>
	<polygon class="st1" points="1096,144 1096,208 1080,192 1064,224 1048,192 1032,208 1016,192 1000,224 984,192 968,208 968,144 	
		"/>
	<path class="st1" d="M1096,296v48l-16-16l-16,32l-16-32l-16,16l-16-16l-16,32l-16-32l-16,16v-64h112c4.1,0,7.8,1.5,10.6,4
		c1.3,1.1,2.4,2.5,3.3,4C1095.2,290.3,1096,293.1,1096,296z"/>
	<path class="st1" d="M1232,144v64l-16-16l-16,32l-16-32l-16,16l-16-16l-16,32l-16-32l-16,16v-48c0-2.9,0.8-5.7,2.1-8
		c0.9-1.5,2-2.9,3.3-4c2.8-2.5,6.5-4,10.6-4H1232z"/>
	<path class="st1" d="M1232,296v48l-16-16l-16,32l-16-32l-16,16l-16-16l-16,32l-16-32l-16,16v-48c0-2.9,0.8-5.7,2.1-8
		c0.9-1.5,2-2.9,3.3-4c2.8-2.5,6.5-4,10.6-4h96c4.1,0,7.8,1.5,10.6,4c1.3,1.1,2.4,2.5,3.3,4C1231.2,290.3,1232,293.1,1232,296z"/>
	<polygon class="st1" points="1368,144 1368,192 1352,176 1336,208 1320,176 1304,192 1288,176 1272,208 1256,176 1240,192 
		1240,144 	"/>
</g>
<g id="groundtexture">
	<polygon class="st2" points="16,256 32,240 48,272 64,240 80,256 96,240 112,272 128,240 144,256 144,240 128,224 112,256 96,224 
		80,240 64,224 48,256 32,224 16,240 	"/>
	<polygon class="st2" points="16,224 32,208 48,240 64,208 80,224 96,208 112,240 128,208 144,224 144,208 128,192 112,224 96,192 
		80,208 64,192 48,224 32,192 16,208 	"/>
	<polygon class="st2" points="32,256 40,272 16,272 	"/>
	<polygon class="st2" points="64,256 80,272 56,272 	"/>
	<polygon class="st2" points="96,256 104,272 80,272 	"/>
	<polygon class="st2" points="144,272 120,272 128,256 	"/>
	<polygon class="st2" points="152,256 168,240 184,272 200,240 216,256 232,240 248,272 264,240 280,256 280,240 264,224 248,256 
		232,224 216,240 200,224 184,256 168,224 152,240 	"/>
	<polygon class="st2" points="152,224 168,208 184,240 200,208 216,224 232,208 248,240 264,208 280,224 280,208 264,192 248,224 
		232,192 216,208 200,192 184,224 168,192 152,208 	"/>
	<polygon class="st2" points="168,256 176,272 152,272 	"/>
	<polygon class="st2" points="200,256 216,272 192,272 	"/>
	<polygon class="st2" points="232,256 240,272 216,272 	"/>
	<polygon class="st2" points="280,272 256,272 264,256 	"/>
	<polygon class="st2" points="288,256 304,240 320,272 336,240 352,256 368,240 384,272 400,240 416,256 416,240 400,224 384,256 
		368,224 352,240 336,224 320,256 304,224 288,240 	"/>
	<polygon class="st2" points="288,224 304,208 320,240 336,208 352,224 368,208 384,240 400,208 416,224 416,208 400,192 384,224 
		368,192 352,208 336,192 320,224 304,192 288,208 	"/>
	<polygon class="st2" points="304,256 312,272 288,272 	"/>
	<polygon class="st2" points="336,256 352,272 328,272 	"/>
	<polygon class="st2" points="368,256 376,272 352,272 	"/>
	<polygon class="st2" points="416,272 392,272 400,256 	"/>
	<polygon class="st2" points="288,360 304,344 320,376 336,344 352,360 368,344 384,376 400,344 416,360 416,344 400,328 384,360 
		368,328 352,344 336,328 320,360 304,328 288,344 	"/>
	<polygon class="st2" points="288,328 304,312 320,344 336,312 352,328 368,312 384,344 400,312 416,328 416,312 400,296 384,328 
		368,296 352,312 336,296 320,328 304,296 288,312 	"/>
	<polygon class="st2" points="288,280 304,280 288,296 	"/>
	<polygon class="st2" points="328,280 336,280 320,312 304,280 312,280 320,296 	"/>
	<polygon class="st2" points="368,280 352,296 336,280 	"/>
	<polygon class="st2" points="392,280 400,280 384,312 368,280 376,280 384,296 	"/>
	<polygon class="st2" points="416,280 416,296 400,280 	"/>
	<polygon class="st2" points="304,392 312,408 288,408 	"/>
	<polygon class="st2" points="336,392 352,408 328,408 	"/>
	<polygon class="st2" points="368,392 376,408 352,408 	"/>
	<polygon class="st2" points="416,408 392,408 400,392 	"/>
	<polygon class="st2" points="288,392 304,376 320,408 336,376 352,392 368,376 384,408 400,376 416,392 416,376 400,360 384,392 
		368,360 352,376 336,360 320,392 304,360 288,376 	"/>
	<polygon class="st2" points="152,360 168,344 184,376 200,344 216,360 232,344 248,376 264,344 280,360 280,344 264,328 248,360 
		232,328 216,344 200,328 184,360 168,328 152,344 	"/>
	<polygon class="st2" points="152,328 168,312 184,344 200,312 216,328 232,312 248,344 264,312 280,328 280,312 264,296 248,328 
		232,296 216,312 200,296 184,328 168,296 152,312 	"/>
	<path class="st2" d="M168,280l-16,16C152,287.2,159.2,280,168,280z"/>
	<polygon class="st2" points="192,280 200,280 184,312 168,280 176,280 184,296 	"/>
	<polygon class="st2" points="232,280 216,296 200,280 	"/>
	<polygon class="st2" points="256,280 264,280 248,312 232,280 240,280 248,296 	"/>
	<path class="st2" d="M280,296l-16-16C272.8,280,280,287.2,280,296z"/>
	<path class="st2" d="M176,408h-8c-4.4,0-8.4-1.8-11.3-4.7L168,392L176,408z"/>
	<polygon class="st2" points="200,392 216,408 192,408 	"/>
	<polygon class="st2" points="232,392 240,408 216,408 	"/>
	<path class="st2" d="M275.3,403.3c-2.9,2.9-6.9,4.7-11.3,4.7h-8l8-16L275.3,403.3z"/>
	<polygon class="st2" points="152,392 168,376 184,408 200,376 216,392 232,376 248,408 264,376 280,392 280,376 264,360 248,392 
		232,360 216,376 200,360 184,392 168,360 152,376 	"/>
	<polygon class="st2" points="16,392 32,376 48,408 64,376 80,392 96,376 112,408 128,376 144,392 144,376 128,360 112,392 96,360 
		80,376 64,360 48,392 32,360 16,376 	"/>
	<polygon class="st2" points="16,360 32,344 48,376 64,344 80,360 96,344 112,376 128,344 144,360 144,344 128,328 112,360 96,328 
		80,344 64,328 48,360 32,328 16,344 	"/>
	<path class="st2" d="M40,408h-8c-4.4,0-8.4-1.8-11.3-4.7L32,392L40,408z"/>
	<polygon class="st2" points="64,392 80,408 56,408 	"/>
	<polygon class="st2" points="96,392 104,408 80,408 	"/>
	<path class="st2" d="M139.3,403.3c-2.9,2.9-6.9,4.7-11.3,4.7h-8l8-16L139.3,403.3z"/>
	<path class="st2" d="M552,376v16l-16-16l-16,32l-4.4-8.9c-1.3-13.9-5.7-26.8-12.5-38.2l0.9-0.9l16,32l16-32L552,376z"/>
	<path class="st2" d="M476.4,332.4c-1.6-1.1-3.3-2.2-4.9-3.2l0.6-1.2L476.4,332.4z"/>
	<path class="st2" d="M552,344v16l-16-16l-16,32l-16-32l-7.4,7.4c-2.3-3-4.8-5.8-7.5-8.5l15-15l16,32l16-32L552,344z"/>
	<polygon class="st2" points="552,408 528,408 536,392 	"/>
	<path class="st2" d="M608.9,360.9c-6.8,11.4-11.2,24.3-12.5,38.2L592,408l-16-32l-16,16v-16l16-16l16,32l16-32L608.9,360.9z"/>
	<path class="st2" d="M608,328l15,15c-2.7,2.7-5.2,5.5-7.5,8.5L608,344l-16,32l-16-32l-16,16v-16l16-16l16,32L608,328z"/>
	<path class="st2" d="M640.6,329.2c-1.7,1-3.3,2.1-4.9,3.2l4.4-4.4L640.6,329.2z"/>
	<polygon class="st2" points="576,392 584,408 560,408 	"/>
	<path class="st2" d="M552,240v16l-16-16l-15.5,30.9c-0.4,0-0.8-0.1-1.1-0.2L504,240l-16,16l-16-16l-4.4,8.7c-1.9-1.5-3.8-3-5.7-4.7
		l10-20l16,16l16-16l16,32l16-32L552,240z"/>
	<path class="st2" d="M552,208v16l-16-16l-16,32l-16-32l-16,16l-16-16l-15.5,30.9c-0.8-0.8-1.5-1.5-2.2-2.3l0,0L440,208l-3.5,3.5
		c-1.9-3.6-3.5-7.3-5-11l8.5-8.5l16,32l16-32l16,16l16-16l16,32l16-32L552,208z"/>
	<path class="st2" d="M510.5,269.1c-5.1-1.2-10.2-2.7-15-4.6l8.5-8.5L510.5,269.1z"/>
	<path class="st2" d="M552,272h-16c-2.6,0-5.3-0.1-7.9-0.3L536,256L552,272z"/>
	<path class="st2" d="M650,244c-1.8,1.6-3.7,3.2-5.7,4.7L640,240l-16,16l-16-16l-15.4,30.8h0c-0.4,0.1-0.8,0.1-1.1,0.2L576,240
		l-16,16v-16l16-16l16,32l16-32l16,16l16-16L650,244z"/>
	<path class="st2" d="M680.5,200.5c-1.5,3.8-3.1,7.5-5,11L672,208l-14.3,28.6l0,0c-0.7,0.8-1.5,1.5-2.2,2.3L640,208l-16,16l-16-16
		l-16,32l-16-32l-16,16v-16l16-16l16,32l16-32l16,16l16-16l16,32l16-32L680.5,200.5z"/>
	<path class="st2" d="M583.9,271.7c-2.6,0.2-5.2,0.3-7.9,0.3h-16l16-16L583.9,271.7z"/>
	<path class="st2" d="M616.5,264.5c-4.9,1.9-9.9,3.4-15,4.6L608,256L616.5,264.5z"/>
	<polygon class="st2" points="712,192 720,208 696,208 	"/>
	<polygon class="st2" points="744,192 760,208 736,208 	"/>
	<polygon class="st2" points="776,192 784,208 760,208 	"/>
	<polygon class="st2" points="824,208 800,208 808,192 	"/>
	<polygon class="st2" points="848,192 856,208 832,208 	"/>
	<polygon class="st2" points="880,192 896,208 872,208 	"/>
	<polygon class="st2" points="912,192 920,208 896,208 	"/>
	<path class="st2" d="M955.3,203.3c-2.9,2.9-6.9,4.7-11.3,4.7h-8l8-16L955.3,203.3z"/>
	<path class="st2" d="M720,344h-8c-4.4,0-8.4-1.8-11.3-4.7L712,328L720,344z"/>
	<polygon class="st2" points="744,328 760,344 736,344 	"/>
	<polygon class="st2" points="776,328 784,344 760,344 	"/>
	<polygon class="st2" points="824,344 800,344 808,328 	"/>
	<path class="st2" d="M856,344h-8c-4.4,0-8.4-1.8-11.3-4.7L848,328L856,344z"/>
	<polygon class="st2" points="880,328 896,344 872,344 	"/>
	<polygon class="st2" points="912,328 920,344 896,344 	"/>
	<path class="st2" d="M955.3,339.3c-2.9,2.9-6.9,4.7-11.3,4.7h-8l8-16L955.3,339.3z"/>
	<polygon class="st2" points="1368,176 1368,192 1352,176 1336,208 1320,176 1304,192 1288,176 1272,208 1256,176 1240,192 
		1240,176 1256,160 1272,192 1288,160 1304,176 1320,160 1336,192 1352,160 	"/>
	<polygon class="st2" points="1240,144 1256,144 1240,160 	"/>
	<polygon class="st2" points="1280,144 1288,144 1272,176 1256,144 1264,144 1272,160 	"/>
	<polygon class="st2" points="1320,144 1304,160 1288,144 	"/>
	<polygon class="st2" points="1344,144 1352,144 1336,176 1320,144 1328,144 1336,160 	"/>
	<polygon class="st2" points="1368,144 1368,160 1352,144 	"/>
</g>
<g id="topshadow">
	<polygon class="st2" points="16,192 32,176 48,208 64,176 80,192 96,176 112,208 128,176 144,192 144,160 16,160 	"/>
	<polygon class="st2" points="152,192 168,176 184,208 200,176 216,192 232,176 248,208 264,176 280,192 280,160 152,160 	"/>
	<polygon class="st2" points="288,192 304,176 320,208 336,176 352,192 368,176 384,208 400,176 416,192 416,160 288,160 	"/>
	<polygon class="st2" points="16,328 32,312 48,344 64,312 80,328 96,312 112,344 128,312 144,328 144,296 16,296 	"/>
	<path class="st2" d="M552,296v32l-16-16l-16,32l-16-32l-16,16l-16-16l-6.8,13.7c-1.1-0.5-2.1-1.1-3.2-1.5c-1.1-0.5-2.2-1-3.3-1.4
		c-2.1-0.9-4.2-1.6-6.4-2.3c-1.6-0.5-3.1-1-4.7-1.4c-1.5-0.4-3-0.8-4.5-1.1l-3-6l-4.7,4.7c-2.4-0.3-4.9-0.5-7.4-0.6
		c-1.3-0.1-2.6-0.1-3.9-0.1v-20H552z"/>
	<path class="st2" d="M688,296v20c-1.3,0-2.6,0-3.9,0.1c-2.5,0.1-5,0.3-7.4,0.6L672,312l-3,6c-1.5,0.3-3,0.7-4.5,1.1
		c-1.6,0.4-3.1,0.9-4.7,1.4c-2.2,0.7-4.3,1.5-6.4,2.3c-1.1,0.4-2.2,0.9-3.3,1.4c-1.1,0.5-2.2,1-3.2,1.5L640,312l-16,16l-16-16
		l-16,32l-16-32l-16,16v-32H688z"/>
	<path class="st2" d="M552,160v32l-16-16l-16,32l-16-32l-16,16l-16-16l-16,32l-16-32l-12.4,12.4c-0.6-2.1-1.1-4.3-1.5-6.5
		c-0.5-2.3-0.8-4.5-1.1-6.9c-0.7-4.9-1-9.9-1-15H552z"/>
	<path class="st2" d="M688,160c0,5.1-0.3,10.1-1,15c-0.3,2.3-0.7,4.6-1.1,6.9c-0.4,2.2-0.9,4.4-1.5,6.5L672,176l-16,32l-16-32
		l-16,16l-16-16l-16,32l-16-32l-16,16v-32H688z"/>
	<polygon class="st2" points="696,192 712,176 728,208 744,176 760,192 776,176 792,208 808,176 824,192 824,160 696,160 	"/>
	<polygon class="st2" points="832,192 848,176 864,208 880,176 896,192 912,176 928,208 944,176 960,192 960,160 832,160 	"/>
	<polygon class="st2" points="696,328 712,312 728,344 744,312 760,328 776,312 792,344 808,312 824,328 824,296 696,296 	"/>
	<polygon class="st2" points="832,328 848,312 864,344 880,312 896,328 912,312 928,344 944,312 960,328 960,296 832,296 	"/>
	<polygon class="st2" points="968,192 984,176 1000,208 1016,176 1032,192 1048,176 1064,208 1080,176 1096,192 1096,160 968,160 	
		"/>
	<polygon class="st2" points="968,328 984,312 1000,344 1016,312 1032,328 1048,312 1064,344 1080,312 1096,328 1096,296 968,296 	
		"/>
	<polygon class="st2" points="1104,192 1120,176 1136,208 1152,176 1168,192 1184,176 1200,208 1216,176 1232,192 1232,160 
		1104,160 	"/>
	<polygon class="st2" points="1104,328 1120,312 1136,344 1152,312 1168,328 1184,312 1200,344 1216,312 1232,328 1232,296 
		1104,296 	"/>
</g>
<g id="topsecond">
	<path class="st3" d="M144,152v32l-16-16l-16,32l-16-32l-16,16l-16-16l-16,32l-16-32l-16,16v-24c0-2.9,0.8-5.7,2.1-8H144z"/>
	<polygon class="st3" points="152,184 168,168 184,200 200,168 216,184 232,168 248,200 264,168 280,184 280,152 152,152 	"/>
	<path class="st3" d="M416,160v24l-16-16l-16,32l-16-32l-16,16l-16-16l-16,32l-16-32l-16,16v-32h125.9
		C415.2,154.3,416,157.1,416,160z"/>
	<path class="st3" d="M144,296v24l-16-16l-16,32l-16-32l-16,16l-16-16l-16,32l-16-32l-16,16v-24c0-2.9,0.8-5.7,2.1-8h123.7
		C143.2,290.3,144,293.1,144,296z"/>
	<path class="st3" d="M552,288v32l-16-16l-16,32l-16-32l-16,16l-16-16l-10.1,20.2c-1.1-0.5-2.2-1-3.3-1.4c-2.1-0.9-4.2-1.6-6.4-2.3
		c-1.6-0.5-3.1-1-4.7-1.4l-7.5-15l-12.1,12.1c-1.3-0.1-2.6-0.1-3.9-0.1v-28H552z"/>
	<path class="st3" d="M688,288v28c-1.3,0-2.6,0-3.9,0.1L672,304l-7.5,15c-1.6,0.4-3.1,0.9-4.7,1.4c-2.2,0.7-4.3,1.5-6.4,2.3
		c-1.1,0.4-2.2,0.9-3.3,1.4L640,304l-16,16l-16-16l-16,32l-16-32l-16,16v-32H688z"/>
	<path class="st3" d="M552,152v32l-16-16l-16,32l-16-32l-16,16l-16-16l-16,32l-16-32l-13.9,13.9c-0.5-2.3-0.8-4.5-1.1-6.9
		c-0.7-4.9-1-9.9-1-15v-8H552z"/>
	<path class="st3" d="M688,152v8c0,5.1-0.3,10.1-1,15c-0.3,2.3-0.7,4.6-1.1,6.9L672,168l-16,32l-16-32l-16,16l-16-16l-16,32l-16-32
		l-16,16v-32H688z"/>
	<polygon class="st3" points="696,184 712,168 728,200 744,168 760,184 776,168 792,200 808,168 824,184 824,152 696,152 	"/>
	<path class="st3" d="M960,160v24l-16-16l-16,32l-16-32l-16,16l-16-16l-16,32l-16-32l-16,16v-32h125.9
		C959.2,154.3,960,157.1,960,160z"/>
	<path class="st3" d="M824,288v32l-16-16l-16,32l-16-32l-16,16l-16-16l-16,32l-16-32l-16,16v-24c0-2.9,0.8-5.7,2.1-8H824z"/>
	<path class="st3" d="M960,296v24l-16-16l-16,32l-16-32l-16,16l-16-16l-16,32l-16-32l-16,16v-24c0-2.9,0.8-5.7,2.1-8h123.7
		C959.2,290.3,960,293.1,960,296z"/>
	<polygon class="st3" points="968,184 984,168 1000,200 1016,168 1032,184 1048,168 1064,200 1080,168 1096,184 1096,152 968,152 	
		"/>
	<path class="st3" d="M1096,296v24l-16-16l-16,32l-16-32l-16,16l-16-16l-16,32l-16-32l-16,16v-32h125.9
		C1095.2,290.3,1096,293.1,1096,296z"/>
	<path class="st3" d="M1232,152v32l-16-16l-16,32l-16-32l-16,16l-16-16l-16,32l-16-32l-16,16v-24c0-2.9,0.8-5.7,2.1-8H1232z"/>
	<path class="st3" d="M1232,296v24l-16-16l-16,32l-16-32l-16,16l-16-16l-16,32l-16-32l-16,16v-24c0-2.9,0.8-5.7,2.1-8h123.7
		C1231.2,290.3,1232,293.1,1232,296z"/>
</g>
<g id="topmain">
	<path class="st4" d="M144,144v32l-16-16l-16,32l-16-32l-16,16l-16-16l-16,32l-16-32l-16,16v-16c0-2.9,0.8-5.7,2.1-8
		c0.9-1.5,2-2.9,3.3-4c2.8-2.5,6.5-4,10.6-4H144z"/>
	<polygon class="st4" points="152,176 168,160 184,192 200,160 216,176 232,160 248,192 264,160 280,176 280,144 152,144 	"/>
	<path class="st4" d="M416,160v16l-16-16l-16,32l-16-32l-16,16l-16-16l-16,32l-16-32l-16,16v-32h112c4.1,0,7.8,1.5,10.6,4
		c1.3,1.1,2.4,2.5,3.3,4C415.2,154.3,416,157.1,416,160z"/>
	<path class="st4" d="M144,296v16l-16-16l-16,32l-16-32l-16,16l-16-16l-16,32l-16-32l-16,16v-16c0-2.9,0.8-5.7,2.1-8
		c0.9-1.5,2-2.9,3.3-4c2.8-2.5,6.5-4,10.6-4h96c4.1,0,7.8,1.5,10.6,4c1.3,1.1,2.4,2.5,3.3,4C143.2,290.3,144,293.1,144,296z"/>
	<path class="st4" d="M552,280v32l-16-16l-16,32l-16-32l-16,16l-16-16l-13.4,26.8c-2.1-0.9-4.2-1.6-6.4-2.3L440,296l-16,16v-32H552z
		"/>
	<path class="st4" d="M688,280v32l-16-16l-12.2,24.4c-2.2,0.7-4.3,1.5-6.4,2.3L640,296l-16,16l-16-16l-16,32l-16-32l-16,16v-32H688z
		"/>
	<path class="st4" d="M552,144v32l-16-16l-16,32l-16-32l-16,16l-16-16l-16,32l-16-32l-15,15c-0.7-4.9-1-9.9-1-15v-16H552z"/>
	<path class="st4" d="M688,144v16c0,5.1-0.3,10.1-1,15l-15-15l-16,32l-16-32l-16,16l-16-16l-16,32l-16-32l-16,16v-32H688z"/>
	<polygon class="st4" points="696,176 712,160 728,192 744,160 760,176 776,160 792,192 808,160 824,176 824,144 696,144 	"/>
	<path class="st4" d="M960,160v16l-16-16l-16,32l-16-32l-16,16l-16-16l-16,32l-16-32l-16,16v-32h112c4.1,0,7.8,1.5,10.6,4
		c1.3,1.1,2.4,2.5,3.3,4C959.2,154.3,960,157.1,960,160z"/>
	<path class="st4" d="M824,280v32l-16-16l-16,32l-16-32l-16,16l-16-16l-16,32l-16-32l-16,16v-16c0-2.9,0.8-5.7,2.1-8
		c0.9-1.5,2-2.9,3.3-4c2.8-2.5,6.5-4,10.6-4H824z"/>
	<path class="st4" d="M960,296v16l-16-16l-16,32l-16-32l-16,16l-16-16l-16,32l-16-32l-16,16v-16c0-2.9,0.8-5.7,2.1-8
		c0.9-1.5,2-2.9,3.3-4c2.8-2.5,6.5-4,10.6-4h96c4.1,0,7.8,1.5,10.6,4c1.3,1.1,2.4,2.5,3.3,4C959.2,290.3,960,293.1,960,296z"/>
	<polygon class="st4" points="968,176 984,160 1000,192 1016,160 1032,176 1048,160 1064,192 1080,160 1096,176 1096,144 968,144 	
		"/>
	<path class="st4" d="M1096,296v16l-16-16l-16,32l-16-32l-16,16l-16-16l-16,32l-16-32l-16,16v-32h112c4.1,0,7.8,1.5,10.6,4
		c1.3,1.1,2.4,2.5,3.3,4C1095.2,290.3,1096,293.1,1096,296z"/>
	<path class="st4" d="M1232,144v32l-16-16l-16,32l-16-32l-16,16l-16-16l-16,32l-16-32l-16,16v-16c0-2.9,0.8-5.7,2.1-8
		c0.9-1.5,2-2.9,3.3-4c2.8-2.5,6.5-4,10.6-4H1232z"/>
	<path class="st4" d="M1232,296v16l-16-16l-16,32l-16-32l-16,16l-16-16l-16,32l-16-32l-16,16v-16c0-2.9,0.8-5.7,2.1-8
		c0.9-1.5,2-2.9,3.3-4c2.8-2.5,6.5-4,10.6-4h96c4.1,0,7.8,1.5,10.6,4c1.3,1.1,2.4,2.5,3.3,4C1231.2,290.3,1232,293.1,1232,296z"/>
</g>
<g id="topline">
	<path class="st3" d="M144,144v4H21.4c2.8-2.5,6.5-4,10.6-4H144z"/>
	<rect x="152" y="144" class="st3" width="128" height="4"/>
	<path class="st3" d="M410.6,148H288v-4h112C404.1,144,407.8,145.5,410.6,148z"/>
	<path class="st3" d="M138.6,284H21.4c2.8-2.5,6.5-4,10.6-4h96C132.1,280,135.8,281.5,138.6,284z"/>
	<rect x="424" y="280" class="st3" width="128" height="4"/>
	<rect x="560" y="280" class="st3" width="128" height="4"/>
	<rect x="424" y="144" class="st3" width="128" height="4"/>
	<rect x="560" y="144" class="st3" width="128" height="4"/>
	<rect x="696" y="144" class="st3" width="128" height="4"/>
	<path class="st3" d="M954.6,148H832v-4h112C948.1,144,951.8,145.5,954.6,148z"/>
	<path class="st3" d="M824,280v4H701.4c2.8-2.5,6.5-4,10.6-4H824z"/>
	<path class="st3" d="M954.6,284H837.4c2.8-2.5,6.5-4,10.6-4h96C948.1,280,951.8,281.5,954.6,284z"/>
	<rect x="968" y="144" class="st3" width="128" height="4"/>
	<path class="st3" d="M1090.6,284H968v-4h112C1084.1,280,1087.8,281.5,1090.6,284z"/>
	<path class="st3" d="M1232,144v4h-122.6c2.8-2.5,6.5-4,10.6-4H1232z"/>
	<path class="st3" d="M1226.6,284h-117.2c2.8-2.5,6.5-4,10.6-4h96C1220.1,280,1223.8,281.5,1226.6,284z"/>
</g>
<g id="trees">
	<path class="st2" d="M88,704l6.5-3.1c6.1-2.9,11.2-7.7,14.4-13.7h0c2-3.9,3.3-8.1,3.6-12.5L120,568h16l7.5,106.7
		c0.3,4.4,1.5,8.6,3.6,12.5l0,0c3.2,6,8.2,10.8,14.4,13.7l6.5,3.1H88z"/>
	<path class="st2" d="M392,584v34.4c0,3.7-0.9,7.3-2.5,10.5l-12.8,25.5c-0.5,1-0.9,2-1.3,3.1l-5,15c-1.6,4.8-1.6,10.1,0,14.9
		L376,704h-8l-5.5-16.5c-1.6-4.8-1.6-10.1,0-14.9l5-15c0.4-1.1,0.8-2.1,1.3-3.1l12.8-25.5c1.6-3.3,2.5-6.9,2.5-10.5V592"/>
	<path class="st4" d="M368,680l9.7-4.9c4.1-2.1,8.7-3.1,13.3-3.1h13.3c2.4,0,4.9-0.3,7.2-0.9L440,664l-28.4-7.1
		c-2.4-0.6-4.8-0.9-7.2-0.9l0,0c-7.9,0-15.5,3.1-21.1,8.7L368,680L368,680z"/>
	<path class="st4" d="M360,648l-5.2-5.2c-1.8-1.8-4.3-2.8-6.8-2.8l0,0c-2.6,0-5,1-6.8,2.8L328,656l14-7c1.3-0.7,2.8-1,4.3-1h3.4
		c1.5,0,3,0.3,4.3,1l14,7L360,648z"/>
	<path class="st4" d="M336,608l6.2-6.2c1.2-1.2,2.6-2.2,4.1-3l7.9-3.9c3.7-1.9,8.1-2.2,12-0.9L384,600l-16-16
		c-4.8-4.8-12.1-6-18.2-3h0c-3.7,1.9-6.6,5.1-7.9,9.1L336,608z"/>
	<path class="st4" d="M416,632l-5.2-5.2c-1.8-1.8-4.3-2.8-6.8-2.8l0,0c-2.6,0-5,1-6.8,2.8L384,640l14-7c1.3-0.7,2.8-1,4.3-1h3.4
		c1.5,0,3,0.3,4.3,1l14,7L416,632z"/>
	<path class="st4" d="M392,608l6.5-3.2c2.8-1.4,5.8-2.1,8.9-2.1h8.9c1.6,0,3.2-0.2,4.8-0.6l19-4.7l-19-4.7c-1.6-0.4-3.2-0.6-4.8-0.6
		l0,0c-5.3,0-10.3,2.1-14,5.8L392,608L392,608z"/>
	<path class="st4" d="M501.6,693.6L512,704l-25.1-6.3c-4.4-1.1-9.1-0.6-13.2,1.5L464,704l10.4-10.4
		C481.9,686.1,494.1,686.1,501.6,693.6z"/>
	<path class="st4" d="M512,703.1v0.9l10.7-17.8c4.1-6.8,10.4-11.9,17.9-14.4l5.4-1.8h-0.9C526.8,670.1,512,684.9,512,703.1z"/>
	<path class="st4" d="M568,696"/>
	<path class="st4" d="M512,704"/>
	<path class="st4" d="M522.4,693.6L512,704l25.1-6.3c4.4-1.1,9.1-0.6,13.2,1.5l9.7,4.8l-10.4-10.4
		C542.1,686.1,529.9,686.1,522.4,693.6z"/>
	<path class="st4" d="M512,703.1v0.9l-10.7-17.8c-4.1-6.8-10.4-11.9-17.9-14.4l-5.4-1.8h0.9C497.2,670.1,512,684.9,512,703.1z"/>
	<path class="st5" d="M512,704l-7.4-22.1c-0.4-1.2-0.6-2.5-0.6-3.8v-11.2c0-1.9,0.4-3.7,1.3-5.4L512,648l6.7,13.4
		c0.8,1.7,1.3,3.5,1.3,5.4V678c0,1.3-0.2,2.6-0.6,3.8L512,704z"/>
	<path class="st3" d="M377.6,672.3l9.1-4.6c5-2.5,10.5-3.9,16-3.9h27l-29.8,3c-1.9,0.2-3.9,0.5-5.7,1.1L377.6,672.3z"/>
	<path class="st3" d="M358.3,648l-3.1-1.7c-4.4-2.5-9.9-2.3-14.1,0.4l-6.3,4l9.2-3.6c2.6-1,5.5-1.2,8.3-0.6L358.3,648z"/>
	<path class="st3" d="M392,633.5l5.9-3.7c3.7-2.3,8.5-2.3,12.2,0l5.9,3.7l-7.6-3.2c-2.8-1.2-6-1.2-8.9,0L392,633.5z"/>
	<path class="st3" d="M399.3,602.3l8.1-3.3c4-1.6,8.4-2.4,12.7-2.1l8.7,0.4l-12.8,2.1L399.3,602.3z"/>
	<path class="st3" d="M374,592.7l-7.9-4.3c-5.9-3.2-13.2-2.4-18.1,2.2l-5.5,5l7.4-4.7c4-2.5,9-3.2,13.5-1.6L374,592.7z"/>
	<path class="st1" d="M390.1,591.6v27.4c0,3.7-0.9,7.3-2.5,10.5l-12.8,25.5c-0.5,1-0.9,2-1.3,3.1l-5,15c-1.6,4.8-1.6,10.1,0,14.9
		l5.5,14.5h-2l-5.5-14.5c-1.6-4.8-1.6-10.1,0-14.9l5-15c0.4-1.1,0.8-2.1,1.3-3.1l12.8-25.5c1.6-3.3,2.5-6.9,2.5-10.5v-24.4"/>
	<path class="st3" d="M517.7,700.3l12.8-6.5c3.5-1.8,7.6-1.9,11.2-0.4l8.5,3.6l-9.8-2.8c-2.8-0.8-5.8-0.6-8.6,0.5L517.7,700.3z"/>
	<path class="st3" d="M504,700.3l-9.3-6c-3.3-2.1-7.3-2.6-11-1.5l-10,3.2l11-2.1c2.7-0.5,5.5-0.1,8,1L504,700.3z"/>
	<path class="st3" d="M506.8,692.3l-3.9-8.1c-1.1-2.2-2.7-4.2-4.7-5.6l-6.1-4.5l6.4,5.7c1.1,1,2,2.1,2.8,3.4L506.8,692.3z"/>
	<path class="st3" d="M517.7,689.8l3.8-6.7c1.1-2,2.7-3.8,4.6-5.2l6.4-4.6l-7,6.5c-0.7,0.7-1.4,1.4-2,2.2L517.7,689.8z"/>
	<path class="st6" d="M512,699l3.4-12c1-3.6,1.6-7.4,1.6-11.1v-5.8c0-3.3-0.6-6.6-1.8-9.7l-3.2-8.6l2,10.3c0.3,1.7,0.5,3.5,0.5,5.2
		v11.3c0,1.9-0.1,3.8-0.4,5.7L512,699z"/>
	<circle class="st6" cx="509.8" cy="659.3" r="0.8"/>
	<circle class="st6" cx="510.9" cy="666.7" r="2.2"/>
	<circle class="st6" cx="508.3" cy="675" r="2.6"/>
	<circle class="st6" cx="511.7" cy="682.6" r="1.2"/>
	<circle class="st6" cx="510.8" cy="691" r="1.8"/>
	<path class="st1" d="M148.5,695.1l-0.4-0.6c-6-8.8-9.4-19.2-9.9-29.8l-1.5-31.7l-3.7-54.3l2.5,85.7c0.3,11,3.7,21.7,9.9,30.8h0
		c1.9,2.8,4.6,4.8,7.8,5.7l5.8,1.6l-5.4-2.9C151.6,698.6,149.8,697,148.5,695.1z"/>
	<path class="st4" d="M171.6,510.2l8.8-4.4c2.2-1.1,3.6-3.3,3.6-5.8v-2.5c0-1-0.2-2-0.7-2.9l-4.2-8.4c-2-4.1-4.8-7.9-8-11.1l-12-12
		c-4.7-4.7-10.1-8.6-16-11.6l-1.6-0.8c-3.5-1.8-7.5-2.7-11.4-2.7h-2v0.2h-2c-4,0-7.9,0.9-11.4,2.7l-1.6,0.8c-5.9,3-11.4,6.9-16,11.6
		l-12,12c-3.3,3.3-6,7-8,11.1l-4.2,8.4c-0.5,0.9-0.7,1.9-0.7,2.9v2.5c0,2.5,1.4,4.7,3.6,5.8l8.8,4.4c1.1,0.6,2,1.4,2.6,2.4
		c0.6,1,1,2.2,1,3.4c0,2.5-1.4,4.7-3.6,5.8l-6.4,3.2c-3.7,1.9-6,5.7-6,9.8v4.7c0,2.9,1.2,5.7,3.2,7.8l7.8,7.8c1.4,1.4,2.1,3.2,2.1,5
		s-0.7,3.6-2.1,5c-1.5,1.5-1.1,4,0.8,4.9l8.3,4.2c2.4,1.2,5.3,1.2,7.7,0l2.4-1.2c2.1-1.1,4.4-1.6,6.7-1.6c3.9,0,7.7,1.5,10.6,4.4
		c0.2,0.2,0.5,0.2,0.7,0l0.8-0.8c1.9-1.9,4.4-2.8,6.8-2.8V572c2.5,0,4.9,0.9,6.8,2.8l0.8,0.8c0.2,0.2,0.5,0.2,0.7,0
		c2.9-2.9,6.7-4.4,10.6-4.4c2.3,0,4.6,0.5,6.7,1.6l2.4,1.2c2.4,1.2,5.3,1.2,7.7,0l8.3-4.2c1.9-0.9,2.3-3.5,0.8-4.9
		c-1.4-1.4-2.1-3.2-2.1-5s0.7-3.6,2.1-5l7.8-7.8c2.1-2.1,3.2-4.8,3.2-7.8v-4.7c0-4.1-2.3-7.9-6-9.8l-6.4-3.2
		c-2.2-1.1-3.6-3.3-3.6-5.8c0-1.2,0.3-2.4,1-3.4C169.6,511.6,170.5,510.8,171.6,510.2z"/>
	<path class="st3" d="M136.5,562.2l8.1-1.2c0.8-0.1,1.6-0.3,2.4-0.5l0.6-0.2c3.3-0.9,6.4-2.6,8.9-4.9l6.7-6.3c1-0.9,2.2-1.6,3.5-2.1
		h0c3.8-1.2,6.4-4.7,6.4-8.7v0c0-1.3-0.4-2.5-1.3-3.5l-14-16.9c-0.3-0.4-0.6-0.8-0.8-1.2c-0.8-1.7-2.5-6.2-0.7-7
		c0.3-0.1,0.7-0.3,1.1-0.6c5.3-3.6,8.1-10,7.3-16.3c-0.1-1-0.2-1.8-0.3-2c-0.1-0.4-7.9-12.7-10.6-16.2c-7.4-9.3-10.4-8.2-19.9-15.4
		l-4.7-3.6l10.9,3.8l0,0c4.5,1.5,8.7,4,12.3,7.1l3.1,2.7c2.7,2.3,5,5.1,6.9,8.1l4.3,6.9c0.4,0.6,0.7,1.2,1,1.8l4.3,7.8
		c0.8,1.5,1.2,3.2,1.2,4.9v0.1c0,2.9-1.3,5.7-3.5,7.7l-2.5,2.2c-3,2.7-4.2,6.9-3,10.7l0,0l11.7,13.5c2.1,2.4,3,5.7,2.5,8.9l0,0
		c-0.5,3-2.2,5.6-4.7,7.2l-2.9,1.9c-0.5,0.3-1.1,0.7-1.6,1c-2,1.1-7.5,4.1-8.9,6.3c-1.7,2.7-4.8,4.8-5.8,5.8c-0.5,0.5-5,0.9-9,1.1
		c-4.3,0.2-8.7-0.7-12.6-2.6l-1.2-0.6L136.5,562.2z"/>
	<path class="st2" d="M216,704l6.5-1.5c6.1-1.4,11.2-3.6,14.4-6.5h0c2-1.8,3.3-3.8,3.6-5.9L248,640h16l7.5,50.2
		c0.3,2.1,1.5,4.1,3.6,5.9h0c3.2,2.8,8.2,5.1,14.4,6.5l6.5,1.5H216z"/>
	<path class="st1" d="M276.5,699.8l-0.4-0.3c-6-4.2-9.4-9-9.9-14l-1.5-14.9l-3.7-25.5l2.5,40.3c0.3,5.2,3.7,10.2,9.9,14.5l0,0
		c1.9,1.3,4.6,2.2,7.8,2.7l5.8,0.8l-5.4-1.4C279.6,701.4,277.8,700.7,276.5,699.8z"/>
	<path class="st4" d="M299.6,582.2l8.8-4.4c2.2-1.1,3.6-3.3,3.6-5.8v-2.5c0-1-0.2-2-0.7-2.9l-4.2-8.4c-2-4.1-4.8-7.9-8-11.1l-12-12
		c-4.7-4.7-10.1-8.6-16-11.6l-1.6-0.8c-3.5-1.8-7.5-2.7-11.4-2.7h-2v0.2h-2c-4,0-7.9,0.9-11.4,2.7l-1.6,0.8c-5.9,3-11.4,6.9-16,11.6
		l-12,12c-3.3,3.3-6,7-8,11.1l-4.2,8.4c-0.5,0.9-0.7,1.9-0.7,2.9v2.5c0,2.5,1.4,4.7,3.6,5.8l8.8,4.4c1.1,0.6,2,1.4,2.6,2.4
		c0.6,1,1,2.2,1,3.4c0,2.5-1.4,4.7-3.6,5.8l-6.4,3.2c-3.7,1.9-6,5.7-6,9.8v4.7c0,2.9,1.2,5.7,3.2,7.8l7.8,7.8c1.4,1.4,2.1,3.2,2.1,5
		s-0.7,3.6-2.1,5c-1.5,1.5-1.1,4,0.8,4.9l8.3,4.2c2.4,1.2,5.3,1.2,7.7,0l2.4-1.2c2.1-1.1,4.4-1.6,6.7-1.6c3.9,0,7.7,1.5,10.6,4.4
		c0.2,0.2,0.5,0.2,0.7,0l0.8-0.8c1.9-1.9,4.4-2.8,6.8-2.8V644c2.5,0,4.9,0.9,6.8,2.8l0.8,0.8c0.2,0.2,0.5,0.2,0.7,0
		c2.9-2.9,6.7-4.4,10.6-4.4c2.3,0,4.6,0.5,6.7,1.6l2.4,1.2c2.4,1.2,5.3,1.2,7.7,0l8.3-4.2c1.9-0.9,2.3-3.5,0.8-4.9
		c-1.4-1.4-2.1-3.2-2.1-5s0.7-3.6,2.1-5l7.8-7.8c2.1-2.1,3.2-4.8,3.2-7.8v-4.7c0-4.1-2.3-7.9-6-9.8l-6.4-3.2
		c-2.2-1.1-3.6-3.3-3.6-5.8c0-1.2,0.3-2.4,1-3.4C297.6,583.6,298.5,582.8,299.6,582.2z"/>
	<path class="st3" d="M264.5,634.2l8.1-1.2c0.8-0.1,1.6-0.3,2.4-0.5l0.6-0.2c3.3-0.9,6.4-2.6,8.9-4.9l6.7-6.3c1-0.9,2.2-1.6,3.5-2.1
		l0,0c3.8-1.2,6.4-4.7,6.4-8.7v0c0-1.3-0.4-2.5-1.3-3.5l-14-16.9c-0.3-0.4-0.6-0.8-0.8-1.2c-0.8-1.7-2.5-6.2-0.7-7
		c0.3-0.1,0.7-0.3,1.1-0.6c5.3-3.6,8.1-10,7.3-16.3c-0.1-1-0.2-1.8-0.3-2c-0.1-0.4-7.9-12.7-10.6-16.2c-7.4-9.3-10.4-8.2-19.9-15.4
		l-4.7-3.6l10.9,3.8l0,0c4.5,1.5,8.7,4,12.3,7.1l3.1,2.7c2.7,2.3,5,5.1,6.9,8.1l4.3,6.9c0.4,0.6,0.7,1.2,1,1.8l4.3,7.8
		c0.8,1.5,1.2,3.2,1.2,4.9v0.1c0,2.9-1.3,5.7-3.5,7.7l-2.5,2.2c-3,2.7-4.2,6.9-3,10.7l0,0l11.7,13.5c2.1,2.4,3,5.7,2.5,8.9l0,0
		c-0.5,3-2.2,5.6-4.7,7.2l-2.9,1.9c-0.5,0.3-1.1,0.7-1.6,1c-2,1.1-7.5,4.1-8.9,6.3c-1.7,2.7-4.8,4.8-5.8,5.8c-0.5,0.5-5,0.9-9,1.1
		c-4.3,0.2-8.7-0.7-12.6-2.6l-1.2-0.6L264.5,634.2z"/>
	<path class="st2" d="M600,704l6.5-1.5c6.1-1.4,11.2-3.6,14.4-6.5l0,0c2-1.8,3.3-3.8,3.6-5.9L632,640h16l7.5,50.2
		c0.3,2.1,1.5,4.1,3.6,5.9l0,0c3.2,2.8,8.2,5.1,14.4,6.5l6.5,1.5H600z"/>
	<path class="st1" d="M660.5,699.8l-0.4-0.3c-6-4.2-9.4-9-9.9-14l-1.5-14.9l-3.7-25.5l2.5,40.3c0.3,5.2,3.7,10.2,9.9,14.5l0,0
		c1.9,1.3,4.6,2.2,7.8,2.7l5.8,0.8l-5.4-1.4C663.6,701.4,661.8,700.7,660.5,699.8z"/>
	<path class="st4" d="M827.9,704H710.2c0.4-0.2,0.8-0.4,1.3-0.6l2.6-0.9c2.3-0.8,4.3-2,5.9-3.6c2.8-2.8,4.4-6.6,4.4-10.6
		c0-0.3,0.2-0.5,0.5-0.5h1.2c2.7,0,5.1-1.1,6.8-2.8l0.1,0.1c1.7-1.7,2.8-4.2,2.8-6.8v-1.2c0-0.3,0.2-0.5,0.5-0.5
		c4.1,0,7.9-1.6,10.6-4.4c1.6-1.6,2.9-3.6,3.6-5.9l0.8-2.6c0.9-2.6,2.9-4.6,5.5-5.5l8.8-2.9c2-0.7,4.1,0.8,4.1,2.9
		c0,2,0.8,3.7,2.1,5c1.3,1.3,3,2.1,5,2.1h11c2.9,0,5.7,1.2,7.8,3.2l3.3,3.3c2.9,2.9,4,7.3,2.7,11.2l-2.3,6.8
		c-0.8,2.3-0.2,4.9,1.6,6.6c0.9,0.9,1.9,1.5,3.1,1.7c1.1,0.3,2.4,0.2,3.5-0.2l9.4-3.1c2.3-0.8,4.9-0.2,6.6,1.6l1.8,1.7
		c0.7,0.7,1.3,1.6,1.6,2.5L827.9,704z"/>
	<path class="st3" d="M808.8,701.2c0,0-11.2-1.7-13.1-5.3l-1.3-17.8c-0.2-3.2-1.9-6.2-4.5-8c-1.8-1.3-4-2-6.2-2
		c-0.8,0-1.5,0.1-2.2,0.2l-3.3,0.7c-0.6,0.1-1.2,0.3-1.8,0.5c-2.2,0.7-8.3,2.5-10.8,1.9c-3.1-0.7-6.8,0-8.3,0
		c-0.8,0-4.1,2.9-7.1,5.6c-3.2,2.9-5.7,6.6-7,10.8l-0.4,1.3l3.3-4l6.5-4.9c0.7-0.5,1.4-1,2.1-1.4l0.5-0.3c3-1.7,6.3-2.7,9.8-2.8
		l9.2-0.3c1.3,0,2.6-0.3,3.8-0.9c1.4-0.7,2.9-1.1,4.3-1.1c2.4,0,4.7,0.9,6.5,2.7c0.9,0.9,1.5,2.1,1.6,3.4l1.6,16.8
		c0.3,3,2.6,5.3,5.5,5.7l0,0c0.5,0.1,0.9,0.1,1.4,0L808.8,701.2z"/>
	<path class="st4" d="M885.6,693.6L896,704l-25.1-6.3c-4.4-1.1-9.1-0.6-13.2,1.5L848,704l10.4-10.4
		C865.9,686.1,878.1,686.1,885.6,693.6z"/>
	<path class="st4" d="M896,703.1v0.9l10.7-17.8c4.1-6.8,10.4-11.9,17.9-14.4l5.4-1.8h-0.9C910.8,670.1,896,684.9,896,703.1z"/>
	<path class="st4" d="M906.4,693.6L896,704l25.1-6.3c4.4-1.1,9.1-0.6,13.2,1.5l9.7,4.8l-10.4-10.4
		C926.1,686.1,913.9,686.1,906.4,693.6z"/>
	<path class="st4" d="M896,703.1v0.9l-10.7-17.8c-4.1-6.8-10.4-11.9-17.9-14.4l-5.4-1.8h0.9C881.2,670.1,896,684.9,896,703.1z"/>
	<path class="st7" d="M896,704l-7.4-22.1c-0.4-1.2-0.6-2.5-0.6-3.8v-11.2c0-1.9,0.4-3.7,1.3-5.4L896,648l6.7,13.4
		c0.8,1.7,1.3,3.5,1.3,5.4V678c0,1.3-0.2,2.6-0.6,3.8L896,704z"/>
	<path class="st3" d="M901.7,700.3l12.8-6.5c3.5-1.8,7.6-1.9,11.2-0.4l8.5,3.6l-9.8-2.8c-2.8-0.8-5.8-0.6-8.6,0.5L901.7,700.3z"/>
	<path class="st3" d="M888,700.3l-9.3-6c-3.3-2.1-7.3-2.6-11-1.5l-10,3.2l11-2.1c2.7-0.5,5.5-0.1,8,1L888,700.3z"/>
	<path class="st3" d="M890.8,692.3l-3.9-8.1c-1.1-2.2-2.7-4.2-4.7-5.6l-6.1-4.5l6.4,5.7c1.1,1,2,2.1,2.8,3.4L890.8,692.3z"/>
	<path class="st3" d="M901.7,689.8l3.8-6.7c1.1-2,2.7-3.8,4.6-5.2l6.4-4.6l-7,6.5c-0.7,0.7-1.4,1.4-2,2.2L901.7,689.8z"/>
	<path class="st8" d="M896,699l3.4-12c1-3.6,1.6-7.4,1.6-11.1v-5.8c0-3.3-0.6-6.6-1.8-9.7l-3.2-8.6l2,10.3c0.3,1.7,0.5,3.5,0.5,5.2
		v11.3c0,1.9-0.1,3.8-0.4,5.7L896,699z"/>
	<circle class="st8" cx="893.8" cy="659.3" r="0.8"/>
	<circle class="st8" cx="894.9" cy="666.7" r="2.2"/>
	<circle class="st8" cx="892.3" cy="675" r="2.6"/>
	<circle class="st8" cx="895.7" cy="682.6" r="1.2"/>
	<circle class="st8" cx="894.8" cy="691" r="1.8"/>
	<path class="st4" d="M1013.6,693.6L1024,704l-25.1-6.3c-4.4-1.1-9.1-0.6-13.2,1.5L976,704l10.4-10.4
		C993.9,686.1,1006.1,686.1,1013.6,693.6z"/>
	<path class="st4" d="M1024,703.1v0.9l10.7-17.8c4.1-6.8,10.4-11.9,17.9-14.4l5.4-1.8h-0.9C1038.8,670.1,1024,684.9,1024,703.1z"/>
	<path class="st4" d="M1034.4,693.6L1024,704l25.1-6.3c4.4-1.1,9.1-0.6,13.2,1.5l9.7,4.8l-10.4-10.4
		C1054.1,686.1,1041.9,686.1,1034.4,693.6z"/>
	<path class="st4" d="M1024,703.1v0.9l-10.7-17.8c-4.1-6.8-10.4-11.9-17.9-14.4l-5.4-1.8h0.9C1009.2,670.1,1024,684.9,1024,703.1z"
		/>
	<path class="st9" d="M1024,704l-7.4-22.1c-0.4-1.2-0.6-2.5-0.6-3.8v-11.2c0-1.9,0.4-3.7,1.3-5.4l6.7-13.4l6.7,13.4
		c0.8,1.7,1.3,3.5,1.3,5.4V678c0,1.3-0.2,2.6-0.6,3.8L1024,704z"/>
	<path class="st3" d="M1029.7,700.3l12.8-6.5c3.5-1.8,7.6-1.9,11.2-0.4l8.5,3.6l-9.8-2.8c-2.8-0.8-5.8-0.6-8.6,0.5L1029.7,700.3z"/>
	<path class="st3" d="M1016,700.3l-9.3-6c-3.3-2.1-7.3-2.6-11-1.5l-10,3.2l11-2.1c2.7-0.5,5.5-0.1,8,1L1016,700.3z"/>
	<path class="st3" d="M1018.8,692.3l-3.9-8.1c-1.1-2.2-2.7-4.2-4.7-5.6l-6.1-4.5l6.4,5.7c1.1,1,2,2.1,2.8,3.4L1018.8,692.3z"/>
	<path class="st3" d="M1029.7,689.8l3.8-6.7c1.1-2,2.7-3.8,4.6-5.2l6.4-4.6l-7,6.5c-0.7,0.7-1.4,1.4-2,2.2L1029.7,689.8z"/>
	<path class="st10" d="M1024,699l3.4-12c1-3.6,1.6-7.4,1.6-11.1v-5.8c0-3.3-0.6-6.6-1.8-9.7l-3.2-8.6l2,10.3
		c0.3,1.7,0.5,3.5,0.5,5.2v11.3c0,1.9-0.1,3.8-0.4,5.7L1024,699z"/>
	<circle class="st10" cx="1021.8" cy="659.3" r="0.8"/>
	<circle class="st10" cx="1022.9" cy="666.7" r="2.2"/>
	<circle class="st10" cx="1020.3" cy="675" r="2.6"/>
	<circle class="st10" cx="1023.7" cy="682.6" r="1.2"/>
	<circle class="st10" cx="1022.8" cy="691" r="1.8"/>
</g>
<g id="water">
	<rect x="864" y="416" class="st11" width="128" height="128"/>
	<path class="st12" d="M992,422v22.1c0,0-32.4,31.6-64,0c-31.6-31.6-64,0-64,0V422c0,0,3-2.9,8-6h49c2.4,1.7,4.7,3.7,7.1,6
		C959.6,453.7,992,422,992,422z"/>
	<path class="st12" d="M992,446.1v22.1c0,0-32.4,31.6-64,0c-31.6-31.6-64,0-64,0v-22.1c0,0,32.4-31.6,64,0S992,446.1,992,446.1z"/>
	<path class="st12" d="M992,515.9V538c0,0-3,2.9-8,6h-49c-2.4-1.7-4.7-3.7-7.1-6c-0.7-0.7-1.4-1.3-2-2c-31-28.3-62,2-62,2v-22.1
		c0,0,32.4-31.6,64,0C959.6,547.5,992,515.9,992,515.9z"/>
	<path class="st12" d="M992,491.9v22.1c0,0-32.4,31.6-64,0c-31.6-31.6-64,0-64,0v-22.1c0,0,32.4-31.6,64,0S992,491.9,992,491.9z"/>
	<path class="st12" d="M984,416c-10.3,6.5-29.3,14.2-49,0H984z"/>
	<path class="st12" d="M920.9,544h-49C882.3,537.5,901.3,529.8,920.9,544z"/>
	<path class="st11" d="M832,468.1V544H704v-75.9c0,0,32.4-31.6,64,0C799.6,499.7,832,468.1,832,468.1z"/>
	<path class="st12" d="M832,515.9V538c0,0-3,2.9-8,6h-49c-2.4-1.7-4.7-3.7-7.1-6c-0.7-0.7-1.4-1.3-2-2c-31-28.3-62,2-62,2v-22.1
		c0,0,32.4-31.6,64,0C799.6,547.5,832,515.9,832,515.9z"/>
	<path class="st12" d="M832,491.9v22.1c0,0-32.4,31.6-64,0c-31.6-31.6-64,0-64,0v-22.1c0,0,32.4-31.6,64,0S832,491.9,832,491.9z"/>
	<path class="st12" d="M760.9,544h-49C722.3,537.5,741.3,529.8,760.9,544z"/>
	<path class="st13" d="M832,462.1v6.1c0,0-32.4,31.6-64,0c-31.6-31.6-64,0-64,0v-6.1c0,0,32.4-31.6,64,0S832,462.1,832,462.1z"/>
</g>
<g id="titles">
	<text transform="matrix(1 0 0 1 16 112)" class="st4 st14 st15">2D JUNGLE PLATFORMER</text>
	<text transform="matrix(1 0 0 1 1096 112)" class="st4 st16 st17">TIo AIMAR</text>
	<rect id="_x3C_Slice_x3E_" x="16" y="144" class="st18" width="128" height="128"/>
	<rect id="_x3C_Slice_x3E__1_" x="152" y="144" class="st18" width="128" height="128"/>
	<rect id="_x3C_Slice_x3E__3_" x="288" y="144" class="st18" width="128" height="128"/>
	<rect id="_x3C_Slice_x3E__2_" x="424" y="144" class="st18" width="128" height="128"/>
	<rect id="_x3C_Slice_x3E__7_" x="560" y="144" class="st18" width="128" height="128"/>
	<rect id="_x3C_Slice_x3E__6_" x="696" y="144" class="st18" width="128" height="128"/>
	<rect id="_x3C_Slice_x3E__5_" x="832" y="144" class="st18" width="128" height="128"/>
	<rect id="_x3C_Slice_x3E__4_" x="968" y="144" class="st18" width="128" height="128"/>
	<rect id="_x3C_Slice_x3E__9_" x="1104" y="144" class="st18" width="128" height="128"/>
	<rect id="_x3C_Slice_x3E__8_" x="1240" y="144" class="st18" width="128" height="128"/>
	<rect id="_x3C_Slice_x3E__18_" x="16" y="280" class="st18" width="128" height="128"/>
	<rect id="_x3C_Slice_x3E__17_" x="152" y="280" class="st18" width="128" height="128"/>
	<rect id="_x3C_Slice_x3E__16_" x="288" y="280" class="st18" width="128" height="128"/>
	<rect id="_x3C_Slice_x3E__15_" x="424" y="280" class="st18" width="128" height="128"/>
	<rect id="_x3C_Slice_x3E__14_" x="560" y="280" class="st18" width="128" height="128"/>
	<rect id="_x3C_Slice_x3E__13_" x="696" y="280" class="st18" width="128" height="128"/>
	<rect id="_x3C_Slice_x3E__12_" x="832" y="280" class="st18" width="128" height="128"/>
	<rect id="_x3C_Slice_x3E__11_" x="968" y="280" class="st18" width="128" height="128"/>
	<rect id="_x3C_Slice_x3E__10_" x="1104" y="280" class="st18" width="128" height="128"/>
	<rect id="_x3C_Slice_x3E__20_" x="704" y="416" class="st18" width="128" height="128"/>
	<rect id="_x3C_Slice_x3E__19_" x="864" y="416" class="st18" width="128" height="128"/>
	<rect id="_x3C_Slice_x3E__26_" x="320" y="576" class="st18" width="128" height="128"/>
	<rect id="_x3C_Slice_x3E__25_" x="448" y="576" class="st18" width="128" height="128"/>
	<rect id="_x3C_Slice_x3E__24_" x="576" y="576" class="st18" width="128" height="128"/>
	<rect id="_x3C_Slice_x3E__23_" x="704" y="576" class="st18" width="128" height="128"/>
	<rect id="_x3C_Slice_x3E__22_" x="832" y="576" class="st18" width="128" height="128"/>
	<rect id="_x3C_Slice_x3E__21_" x="960" y="576" class="st18" width="128" height="128"/>
	<rect id="_x3C_Slice_x3E__27_" x="192" y="512" class="st18" width="128" height="192"/>
	<rect id="_x3C_Slice_x3E__28_" x="64" y="448" class="st18" width="128" height="256"/>
</g>
</svg>
